<mxfile host="65bd71144e">
    <diagram id="RC-aU7NAIhK-gwtB71pm" name="Page-1">
        <mxGraphModel dx="759" dy="396" grid="1" gridSize="10" guides="1" tooltips="1" connect="1" arrows="1" fold="1" page="1" pageScale="1" pageWidth="850" pageHeight="1100" math="0" shadow="0">
            <root>
                <mxCell id="0"/>
                <mxCell id="1" parent="0"/>
                <mxCell id="6" style="edgeStyle=none;html=1;entryX=0.5;entryY=0;entryDx=0;entryDy=0;" parent="1" source="2" target="3" edge="1">
                    <mxGeometry relative="1" as="geometry"/>
                </mxCell>
                <mxCell id="2" value="Start" style="ellipse;whiteSpace=wrap;html=1;" parent="1" vertex="1">
                    <mxGeometry x="331" y="50" width="120" height="50" as="geometry"/>
                </mxCell>
                <mxCell id="22" style="edgeStyle=none;html=1;entryX=0.5;entryY=0;entryDx=0;entryDy=0;" parent="1" source="3" target="13" edge="1">
                    <mxGeometry relative="1" as="geometry"/>
                </mxCell>
                <mxCell id="3" value="play = true" style="shape=parallelogram;perimeter=parallelogramPerimeter;whiteSpace=wrap;html=1;fixedSize=1;" parent="1" vertex="1">
                    <mxGeometry x="331" y="150" width="120" height="60" as="geometry"/>
                </mxCell>
                <mxCell id="24" style="edgeStyle=none;html=1;entryX=0.5;entryY=0;entryDx=0;entryDy=0;" parent="1" source="5" target="15" edge="1">
                    <mxGeometry relative="1" as="geometry">
                        <mxPoint x="388.5" y="440" as="targetPoint"/>
                    </mxGeometry>
                </mxCell>
                <mxCell id="25" value="true" style="edgeLabel;html=1;align=center;verticalAlign=middle;resizable=0;points=[];" parent="24" vertex="1" connectable="0">
                    <mxGeometry x="-0.2744" relative="1" as="geometry">
                        <mxPoint as="offset"/>
                    </mxGeometry>
                </mxCell>
                <mxCell id="5" value="Play?" style="rhombus;whiteSpace=wrap;html=1;" parent="1" vertex="1">
                    <mxGeometry x="351" y="330" width="80" height="80" as="geometry"/>
                </mxCell>
                <mxCell id="8" value="Selesai" style="ellipse;whiteSpace=wrap;html=1;" parent="1" vertex="1">
                    <mxGeometry x="331" y="730" width="120" height="50" as="geometry"/>
                </mxCell>
                <mxCell id="23" style="edgeStyle=none;html=1;entryX=0.5;entryY=0;entryDx=0;entryDy=0;" parent="1" source="13" target="5" edge="1">
                    <mxGeometry relative="1" as="geometry"/>
                </mxCell>
                <mxCell id="13" value="inisialisasi model dan camera" style="shape=parallelogram;perimeter=parallelogramPerimeter;whiteSpace=wrap;html=1;fixedSize=1;" parent="1" vertex="1">
                    <mxGeometry x="330" y="240" width="122" height="60" as="geometry"/>
                </mxCell>
                <mxCell id="27" style="edgeStyle=none;html=1;startArrow=none;entryX=0;entryY=0;entryDx=40;entryDy=0;entryPerimeter=0;" parent="1" source="49" target="36" edge="1">
                    <mxGeometry relative="1" as="geometry">
                        <mxPoint x="391" y="620" as="targetPoint"/>
                    </mxGeometry>
                </mxCell>
                <mxCell id="15" value="deteksi tangan" style="rounded=1;whiteSpace=wrap;html=1;" parent="1" vertex="1">
                    <mxGeometry x="343.5" y="460" width="95" height="40" as="geometry"/>
                </mxCell>
                <mxCell id="43" style="edgeStyle=none;html=1;entryX=0.5;entryY=0;entryDx=0;entryDy=0;" parent="1" source="36" target="8" edge="1">
                    <mxGeometry relative="1" as="geometry"/>
                </mxCell>
                <mxCell id="36" value="tampilkan prediksi" style="shape=display;whiteSpace=wrap;html=1;" parent="1" vertex="1">
                    <mxGeometry x="351" y="640" width="80" height="40" as="geometry"/>
                </mxCell>
                <mxCell id="44" value="" style="edgeStyle=elbowEdgeStyle;elbow=horizontal;endArrow=classic;html=1;curved=0;rounded=0;endSize=8;startSize=8;exitX=1;exitY=0.5;exitDx=0;exitDy=0;entryX=1;entryY=0.5;entryDx=0;entryDy=0;" parent="1" source="5" target="8" edge="1">
                    <mxGeometry width="50" height="50" relative="1" as="geometry">
                        <mxPoint x="446" y="675" as="sourcePoint"/>
                        <mxPoint x="438.5" y="880" as="targetPoint"/>
                        <Array as="points">
                            <mxPoint x="570" y="680"/>
                        </Array>
                    </mxGeometry>
                </mxCell>
                <mxCell id="45" value="fasle" style="edgeLabel;html=1;align=center;verticalAlign=middle;resizable=0;points=[];" parent="44" vertex="1" connectable="0">
                    <mxGeometry x="-0.8202" relative="1" as="geometry">
                        <mxPoint as="offset"/>
                    </mxGeometry>
                </mxCell>
                <mxCell id="50" value="" style="edgeStyle=none;html=1;entryX=0.5;entryY=0;entryDx=0;entryDy=0;endArrow=none;" edge="1" parent="1" source="15" target="49">
                    <mxGeometry relative="1" as="geometry">
                        <mxPoint x="390.75" y="500" as="sourcePoint"/>
                        <mxPoint x="388.5" y="680" as="targetPoint"/>
                    </mxGeometry>
                </mxCell>
                <mxCell id="49" value="predisi tangan" style="rounded=1;whiteSpace=wrap;html=1;" vertex="1" parent="1">
                    <mxGeometry x="343.5" y="540" width="95" height="40" as="geometry"/>
                </mxCell>
            </root>
        </mxGraphModel>
    </diagram>
</mxfile>